# Phase 14f: procedurally generated UV sphere -- see
# tools/generate_primitive_meshes.py for the generator (this file's own
# vertex/face data is its checked-in output, not hand-typed). Radius 0.35,
# centered on its own local origin, matching this engine's own
# "entity Transform position IS the mesh's geometric center, no separate
# mesh-to-collider/mesh-to-origin offset" convention (see
# falling_cube.obj's own header comment for the same idea applied to a box).

mtllib sphere.mtl

v 0.000000 0.350000 0.000000
v 0.000000 0.350000 0.000000
v 0.000000 0.350000 0.000000
v 0.000000 0.350000 0.000000
v 0.000000 0.350000 0.000000
v -0.000000 0.350000 0.000000
v -0.000000 0.350000 0.000000
v -0.000000 0.350000 0.000000
v -0.000000 0.350000 0.000000
v -0.000000 0.350000 -0.000000
v -0.000000 0.350000 -0.000000
v -0.000000 0.350000 -0.000000
v -0.000000 0.350000 -0.000000
v 0.000000 0.350000 -0.000000
v 0.000000 0.350000 -0.000000
v 0.000000 0.350000 -0.000000
v 0.000000 0.350000 -0.000000
v 0.108156 0.332870 0.000000
v 0.099923 0.332870 0.041389
v 0.076478 0.332870 0.076478
v 0.041389 0.332870 0.099923
v 0.000000 0.332870 0.108156
v -0.041389 0.332870 0.099923
v -0.076478 0.332870 0.076478
v -0.099923 0.332870 0.041389
v -0.108156 0.332870 0.000000
v -0.099923 0.332870 -0.041389
v -0.076478 0.332870 -0.076478
v -0.041389 0.332870 -0.099923
v -0.000000 0.332870 -0.108156
v 0.041389 0.332870 -0.099923
v 0.076478 0.332870 -0.076478
v 0.099923 0.332870 -0.041389
v 0.108156 0.332870 -0.000000
v 0.205725 0.283156 0.000000
v 0.190065 0.283156 0.078727
v 0.145469 0.283156 0.145469
v 0.078727 0.283156 0.190065
v 0.000000 0.283156 0.205725
v -0.078727 0.283156 0.190065
v -0.145469 0.283156 0.145469
v -0.190065 0.283156 0.078727
v -0.205725 0.283156 0.000000
v -0.190065 0.283156 -0.078727
v -0.145469 0.283156 -0.145469
v -0.078727 0.283156 -0.190065
v -0.000000 0.283156 -0.205725
v 0.078727 0.283156 -0.190065
v 0.145469 0.283156 -0.145469
v 0.190065 0.283156 -0.078727
v 0.205725 0.283156 -0.000000
v 0.283156 0.205725 0.000000
v 0.261602 0.205725 0.108359
v 0.200221 0.205725 0.200221
v 0.108359 0.205725 0.261602
v 0.000000 0.205725 0.283156
v -0.108359 0.205725 0.261602
v -0.200221 0.205725 0.200221
v -0.261602 0.205725 0.108359
v -0.283156 0.205725 0.000000
v -0.261602 0.205725 -0.108359
v -0.200221 0.205725 -0.200221
v -0.108359 0.205725 -0.261602
v -0.000000 0.205725 -0.283156
v 0.108359 0.205725 -0.261602
v 0.200221 0.205725 -0.200221
v 0.261602 0.205725 -0.108359
v 0.283156 0.205725 -0.000000
v 0.332870 0.108156 0.000000
v 0.307532 0.108156 0.127384
v 0.235374 0.108156 0.235374
v 0.127384 0.108156 0.307532
v 0.000000 0.108156 0.332870
v -0.127384 0.108156 0.307532
v -0.235374 0.108156 0.235374
v -0.307532 0.108156 0.127384
v -0.332870 0.108156 0.000000
v -0.307532 0.108156 -0.127384
v -0.235374 0.108156 -0.235374
v -0.127384 0.108156 -0.307532
v -0.000000 0.108156 -0.332870
v 0.127384 0.108156 -0.307532
v 0.235374 0.108156 -0.235374
v 0.307532 0.108156 -0.127384
v 0.332870 0.108156 -0.000000
v 0.350000 0.000000 0.000000
v 0.323358 0.000000 0.133939
v 0.247487 0.000000 0.247487
v 0.133939 0.000000 0.323358
v 0.000000 0.000000 0.350000
v -0.133939 0.000000 0.323358
v -0.247487 0.000000 0.247487
v -0.323358 0.000000 0.133939
v -0.350000 0.000000 0.000000
v -0.323358 0.000000 -0.133939
v -0.247487 0.000000 -0.247487
v -0.133939 0.000000 -0.323358
v -0.000000 0.000000 -0.350000
v 0.133939 0.000000 -0.323358
v 0.247487 0.000000 -0.247487
v 0.323358 0.000000 -0.133939
v 0.350000 0.000000 -0.000000
v 0.332870 -0.108156 0.000000
v 0.307532 -0.108156 0.127384
v 0.235374 -0.108156 0.235374
v 0.127384 -0.108156 0.307532
v 0.000000 -0.108156 0.332870
v -0.127384 -0.108156 0.307532
v -0.235374 -0.108156 0.235374
v -0.307532 -0.108156 0.127384
v -0.332870 -0.108156 0.000000
v -0.307532 -0.108156 -0.127384
v -0.235374 -0.108156 -0.235374
v -0.127384 -0.108156 -0.307532
v -0.000000 -0.108156 -0.332870
v 0.127384 -0.108156 -0.307532
v 0.235374 -0.108156 -0.235374
v 0.307532 -0.108156 -0.127384
v 0.332870 -0.108156 -0.000000
v 0.283156 -0.205725 0.000000
v 0.261602 -0.205725 0.108359
v 0.200221 -0.205725 0.200221
v 0.108359 -0.205725 0.261602
v 0.000000 -0.205725 0.283156
v -0.108359 -0.205725 0.261602
v -0.200221 -0.205725 0.200221
v -0.261602 -0.205725 0.108359
v -0.283156 -0.205725 0.000000
v -0.261602 -0.205725 -0.108359
v -0.200221 -0.205725 -0.200221
v -0.108359 -0.205725 -0.261602
v -0.000000 -0.205725 -0.283156
v 0.108359 -0.205725 -0.261602
v 0.200221 -0.205725 -0.200221
v 0.261602 -0.205725 -0.108359
v 0.283156 -0.205725 -0.000000
v 0.205725 -0.283156 0.000000
v 0.190065 -0.283156 0.078727
v 0.145469 -0.283156 0.145469
v 0.078727 -0.283156 0.190065
v 0.000000 -0.283156 0.205725
v -0.078727 -0.283156 0.190065
v -0.145469 -0.283156 0.145469
v -0.190065 -0.283156 0.078727
v -0.205725 -0.283156 0.000000
v -0.190065 -0.283156 -0.078727
v -0.145469 -0.283156 -0.145469
v -0.078727 -0.283156 -0.190065
v -0.000000 -0.283156 -0.205725
v 0.078727 -0.283156 -0.190065
v 0.145469 -0.283156 -0.145469
v 0.190065 -0.283156 -0.078727
v 0.205725 -0.283156 -0.000000
v 0.108156 -0.332870 0.000000
v 0.099923 -0.332870 0.041389
v 0.076478 -0.332870 0.076478
v 0.041389 -0.332870 0.099923
v 0.000000 -0.332870 0.108156
v -0.041389 -0.332870 0.099923
v -0.076478 -0.332870 0.076478
v -0.099923 -0.332870 0.041389
v -0.108156 -0.332870 0.000000
v -0.099923 -0.332870 -0.041389
v -0.076478 -0.332870 -0.076478
v -0.041389 -0.332870 -0.099923
v -0.000000 -0.332870 -0.108156
v 0.041389 -0.332870 -0.099923
v 0.076478 -0.332870 -0.076478
v 0.099923 -0.332870 -0.041389
v 0.108156 -0.332870 -0.000000
v 0.000000 -0.350000 0.000000
v 0.000000 -0.350000 0.000000
v 0.000000 -0.350000 0.000000
v 0.000000 -0.350000 0.000000
v 0.000000 -0.350000 0.000000
v -0.000000 -0.350000 0.000000
v -0.000000 -0.350000 0.000000
v -0.000000 -0.350000 0.000000
v -0.000000 -0.350000 0.000000
v -0.000000 -0.350000 -0.000000
v -0.000000 -0.350000 -0.000000
v -0.000000 -0.350000 -0.000000
v -0.000000 -0.350000 -0.000000
v 0.000000 -0.350000 -0.000000
v 0.000000 -0.350000 -0.000000
v 0.000000 -0.350000 -0.000000
v 0.000000 -0.350000 -0.000000

vt 0.000000 1.000000
vt 0.062500 1.000000
vt 0.125000 1.000000
vt 0.187500 1.000000
vt 0.250000 1.000000
vt 0.312500 1.000000
vt 0.375000 1.000000
vt 0.437500 1.000000
vt 0.500000 1.000000
vt 0.562500 1.000000
vt 0.625000 1.000000
vt 0.687500 1.000000
vt 0.750000 1.000000
vt 0.812500 1.000000
vt 0.875000 1.000000
vt 0.937500 1.000000
vt 1.000000 1.000000
vt 0.000000 0.900000
vt 0.062500 0.900000
vt 0.125000 0.900000
vt 0.187500 0.900000
vt 0.250000 0.900000
vt 0.312500 0.900000
vt 0.375000 0.900000
vt 0.437500 0.900000
vt 0.500000 0.900000
vt 0.562500 0.900000
vt 0.625000 0.900000
vt 0.687500 0.900000
vt 0.750000 0.900000
vt 0.812500 0.900000
vt 0.875000 0.900000
vt 0.937500 0.900000
vt 1.000000 0.900000
vt 0.000000 0.800000
vt 0.062500 0.800000
vt 0.125000 0.800000
vt 0.187500 0.800000
vt 0.250000 0.800000
vt 0.312500 0.800000
vt 0.375000 0.800000
vt 0.437500 0.800000
vt 0.500000 0.800000
vt 0.562500 0.800000
vt 0.625000 0.800000
vt 0.687500 0.800000
vt 0.750000 0.800000
vt 0.812500 0.800000
vt 0.875000 0.800000
vt 0.937500 0.800000
vt 1.000000 0.800000
vt 0.000000 0.700000
vt 0.062500 0.700000
vt 0.125000 0.700000
vt 0.187500 0.700000
vt 0.250000 0.700000
vt 0.312500 0.700000
vt 0.375000 0.700000
vt 0.437500 0.700000
vt 0.500000 0.700000
vt 0.562500 0.700000
vt 0.625000 0.700000
vt 0.687500 0.700000
vt 0.750000 0.700000
vt 0.812500 0.700000
vt 0.875000 0.700000
vt 0.937500 0.700000
vt 1.000000 0.700000
vt 0.000000 0.600000
vt 0.062500 0.600000
vt 0.125000 0.600000
vt 0.187500 0.600000
vt 0.250000 0.600000
vt 0.312500 0.600000
vt 0.375000 0.600000
vt 0.437500 0.600000
vt 0.500000 0.600000
vt 0.562500 0.600000
vt 0.625000 0.600000
vt 0.687500 0.600000
vt 0.750000 0.600000
vt 0.812500 0.600000
vt 0.875000 0.600000
vt 0.937500 0.600000
vt 1.000000 0.600000
vt 0.000000 0.500000
vt 0.062500 0.500000
vt 0.125000 0.500000
vt 0.187500 0.500000
vt 0.250000 0.500000
vt 0.312500 0.500000
vt 0.375000 0.500000
vt 0.437500 0.500000
vt 0.500000 0.500000
vt 0.562500 0.500000
vt 0.625000 0.500000
vt 0.687500 0.500000
vt 0.750000 0.500000
vt 0.812500 0.500000
vt 0.875000 0.500000
vt 0.937500 0.500000
vt 1.000000 0.500000
vt 0.000000 0.400000
vt 0.062500 0.400000
vt 0.125000 0.400000
vt 0.187500 0.400000
vt 0.250000 0.400000
vt 0.312500 0.400000
vt 0.375000 0.400000
vt 0.437500 0.400000
vt 0.500000 0.400000
vt 0.562500 0.400000
vt 0.625000 0.400000
vt 0.687500 0.400000
vt 0.750000 0.400000
vt 0.812500 0.400000
vt 0.875000 0.400000
vt 0.937500 0.400000
vt 1.000000 0.400000
vt 0.000000 0.300000
vt 0.062500 0.300000
vt 0.125000 0.300000
vt 0.187500 0.300000
vt 0.250000 0.300000
vt 0.312500 0.300000
vt 0.375000 0.300000
vt 0.437500 0.300000
vt 0.500000 0.300000
vt 0.562500 0.300000
vt 0.625000 0.300000
vt 0.687500 0.300000
vt 0.750000 0.300000
vt 0.812500 0.300000
vt 0.875000 0.300000
vt 0.937500 0.300000
vt 1.000000 0.300000
vt 0.000000 0.200000
vt 0.062500 0.200000
vt 0.125000 0.200000
vt 0.187500 0.200000
vt 0.250000 0.200000
vt 0.312500 0.200000
vt 0.375000 0.200000
vt 0.437500 0.200000
vt 0.500000 0.200000
vt 0.562500 0.200000
vt 0.625000 0.200000
vt 0.687500 0.200000
vt 0.750000 0.200000
vt 0.812500 0.200000
vt 0.875000 0.200000
vt 0.937500 0.200000
vt 1.000000 0.200000
vt 0.000000 0.100000
vt 0.062500 0.100000
vt 0.125000 0.100000
vt 0.187500 0.100000
vt 0.250000 0.100000
vt 0.312500 0.100000
vt 0.375000 0.100000
vt 0.437500 0.100000
vt 0.500000 0.100000
vt 0.562500 0.100000
vt 0.625000 0.100000
vt 0.687500 0.100000
vt 0.750000 0.100000
vt 0.812500 0.100000
vt 0.875000 0.100000
vt 0.937500 0.100000
vt 1.000000 0.100000
vt 0.000000 0.000000
vt 0.062500 0.000000
vt 0.125000 0.000000
vt 0.187500 0.000000
vt 0.250000 0.000000
vt 0.312500 0.000000
vt 0.375000 0.000000
vt 0.437500 0.000000
vt 0.500000 0.000000
vt 0.562500 0.000000
vt 0.625000 0.000000
vt 0.687500 0.000000
vt 0.750000 0.000000
vt 0.812500 0.000000
vt 0.875000 0.000000
vt 0.937500 0.000000
vt 1.000000 0.000000

vn 0.000000 1.000000 0.000000
vn 0.000000 1.000000 0.000000
vn 0.000000 1.000000 0.000000
vn 0.000000 1.000000 0.000000
vn 0.000000 1.000000 0.000000
vn -0.000000 1.000000 0.000000
vn -0.000000 1.000000 0.000000
vn -0.000000 1.000000 0.000000
vn -0.000000 1.000000 0.000000
vn -0.000000 1.000000 -0.000000
vn -0.000000 1.000000 -0.000000
vn -0.000000 1.000000 -0.000000
vn -0.000000 1.000000 -0.000000
vn 0.000000 1.000000 -0.000000
vn 0.000000 1.000000 -0.000000
vn 0.000000 1.000000 -0.000000
vn 0.000000 1.000000 -0.000000
vn 0.309017 0.951057 0.000000
vn 0.285494 0.951057 0.118256
vn 0.218508 0.951057 0.218508
vn 0.118256 0.951057 0.285494
vn 0.000000 0.951057 0.309017
vn -0.118256 0.951057 0.285494
vn -0.218508 0.951057 0.218508
vn -0.285494 0.951057 0.118256
vn -0.309017 0.951057 0.000000
vn -0.285494 0.951057 -0.118256
vn -0.218508 0.951057 -0.218508
vn -0.118256 0.951057 -0.285494
vn -0.000000 0.951057 -0.309017
vn 0.118256 0.951057 -0.285494
vn 0.218508 0.951057 -0.218508
vn 0.285494 0.951057 -0.118256
vn 0.309017 0.951057 -0.000000
vn 0.587785 0.809017 0.000000
vn 0.543043 0.809017 0.224936
vn 0.415627 0.809017 0.415627
vn 0.224936 0.809017 0.543043
vn 0.000000 0.809017 0.587785
vn -0.224936 0.809017 0.543043
vn -0.415627 0.809017 0.415627
vn -0.543043 0.809017 0.224936
vn -0.587785 0.809017 0.000000
vn -0.543043 0.809017 -0.224936
vn -0.415627 0.809017 -0.415627
vn -0.224936 0.809017 -0.543043
vn -0.000000 0.809017 -0.587785
vn 0.224936 0.809017 -0.543043
vn 0.415627 0.809017 -0.415627
vn 0.543043 0.809017 -0.224936
vn 0.587785 0.809017 -0.000000
vn 0.809017 0.587785 0.000000
vn 0.747434 0.587785 0.309597
vn 0.572061 0.587785 0.572061
vn 0.309597 0.587785 0.747434
vn 0.000000 0.587785 0.809017
vn -0.309597 0.587785 0.747434
vn -0.572061 0.587785 0.572061
vn -0.747434 0.587785 0.309597
vn -0.809017 0.587785 0.000000
vn -0.747434 0.587785 -0.309597
vn -0.572061 0.587785 -0.572061
vn -0.309597 0.587785 -0.747434
vn -0.000000 0.587785 -0.809017
vn 0.309597 0.587785 -0.747434
vn 0.572061 0.587785 -0.572061
vn 0.747434 0.587785 -0.309597
vn 0.809017 0.587785 -0.000000
vn 0.951057 0.309017 0.000000
vn 0.878662 0.309017 0.363954
vn 0.672499 0.309017 0.672499
vn 0.363954 0.309017 0.878662
vn 0.000000 0.309017 0.951057
vn -0.363954 0.309017 0.878662
vn -0.672499 0.309017 0.672499
vn -0.878662 0.309017 0.363954
vn -0.951057 0.309017 0.000000
vn -0.878662 0.309017 -0.363954
vn -0.672499 0.309017 -0.672499
vn -0.363954 0.309017 -0.878662
vn -0.000000 0.309017 -0.951057
vn 0.363954 0.309017 -0.878662
vn 0.672499 0.309017 -0.672499
vn 0.878662 0.309017 -0.363954
vn 0.951057 0.309017 -0.000000
vn 1.000000 0.000000 0.000000
vn 0.923880 0.000000 0.382683
vn 0.707107 0.000000 0.707107
vn 0.382683 0.000000 0.923880
vn 0.000000 0.000000 1.000000
vn -0.382683 0.000000 0.923880
vn -0.707107 0.000000 0.707107
vn -0.923880 0.000000 0.382683
vn -1.000000 0.000000 0.000000
vn -0.923880 0.000000 -0.382683
vn -0.707107 0.000000 -0.707107
vn -0.382683 0.000000 -0.923880
vn -0.000000 0.000000 -1.000000
vn 0.382683 0.000000 -0.923880
vn 0.707107 0.000000 -0.707107
vn 0.923880 0.000000 -0.382683
vn 1.000000 0.000000 -0.000000
vn 0.951057 -0.309017 0.000000
vn 0.878662 -0.309017 0.363954
vn 0.672499 -0.309017 0.672499
vn 0.363954 -0.309017 0.878662
vn 0.000000 -0.309017 0.951057
vn -0.363954 -0.309017 0.878662
vn -0.672499 -0.309017 0.672499
vn -0.878662 -0.309017 0.363954
vn -0.951057 -0.309017 0.000000
vn -0.878662 -0.309017 -0.363954
vn -0.672499 -0.309017 -0.672499
vn -0.363954 -0.309017 -0.878662
vn -0.000000 -0.309017 -0.951057
vn 0.363954 -0.309017 -0.878662
vn 0.672499 -0.309017 -0.672499
vn 0.878662 -0.309017 -0.363954
vn 0.951057 -0.309017 -0.000000
vn 0.809017 -0.587785 0.000000
vn 0.747434 -0.587785 0.309597
vn 0.572061 -0.587785 0.572061
vn 0.309597 -0.587785 0.747434
vn 0.000000 -0.587785 0.809017
vn -0.309597 -0.587785 0.747434
vn -0.572061 -0.587785 0.572061
vn -0.747434 -0.587785 0.309597
vn -0.809017 -0.587785 0.000000
vn -0.747434 -0.587785 -0.309597
vn -0.572061 -0.587785 -0.572061
vn -0.309597 -0.587785 -0.747434
vn -0.000000 -0.587785 -0.809017
vn 0.309597 -0.587785 -0.747434
vn 0.572061 -0.587785 -0.572061
vn 0.747434 -0.587785 -0.309597
vn 0.809017 -0.587785 -0.000000
vn 0.587785 -0.809017 0.000000
vn 0.543043 -0.809017 0.224936
vn 0.415627 -0.809017 0.415627
vn 0.224936 -0.809017 0.543043
vn 0.000000 -0.809017 0.587785
vn -0.224936 -0.809017 0.543043
vn -0.415627 -0.809017 0.415627
vn -0.543043 -0.809017 0.224936
vn -0.587785 -0.809017 0.000000
vn -0.543043 -0.809017 -0.224936
vn -0.415627 -0.809017 -0.415627
vn -0.224936 -0.809017 -0.543043
vn -0.000000 -0.809017 -0.587785
vn 0.224936 -0.809017 -0.543043
vn 0.415627 -0.809017 -0.415627
vn 0.543043 -0.809017 -0.224936
vn 0.587785 -0.809017 -0.000000
vn 0.309017 -0.951057 0.000000
vn 0.285494 -0.951057 0.118256
vn 0.218508 -0.951057 0.218508
vn 0.118256 -0.951057 0.285494
vn 0.000000 -0.951057 0.309017
vn -0.118256 -0.951057 0.285494
vn -0.218508 -0.951057 0.218508
vn -0.285494 -0.951057 0.118256
vn -0.309017 -0.951057 0.000000
vn -0.285494 -0.951057 -0.118256
vn -0.218508 -0.951057 -0.218508
vn -0.118256 -0.951057 -0.285494
vn -0.000000 -0.951057 -0.309017
vn 0.118256 -0.951057 -0.285494
vn 0.218508 -0.951057 -0.218508
vn 0.285494 -0.951057 -0.118256
vn 0.309017 -0.951057 -0.000000
vn 0.000000 -1.000000 0.000000
vn 0.000000 -1.000000 0.000000
vn 0.000000 -1.000000 0.000000
vn 0.000000 -1.000000 0.000000
vn 0.000000 -1.000000 0.000000
vn -0.000000 -1.000000 0.000000
vn -0.000000 -1.000000 0.000000
vn -0.000000 -1.000000 0.000000
vn -0.000000 -1.000000 0.000000
vn -0.000000 -1.000000 -0.000000
vn -0.000000 -1.000000 -0.000000
vn -0.000000 -1.000000 -0.000000
vn -0.000000 -1.000000 -0.000000
vn 0.000000 -1.000000 -0.000000
vn 0.000000 -1.000000 -0.000000
vn 0.000000 -1.000000 -0.000000
vn 0.000000 -1.000000 -0.000000

o Sphere
usemtl Sphere
f 19/19/19 18/18/18 1/1/1
f 20/20/20 19/19/19 2/2/2
f 21/21/21 20/20/20 3/3/3
f 22/22/22 21/21/21 4/4/4
f 23/23/23 22/22/22 5/5/5
f 24/24/24 23/23/23 6/6/6
f 25/25/25 24/24/24 7/7/7
f 26/26/26 25/25/25 8/8/8
f 27/27/27 26/26/26 9/9/9
f 28/28/28 27/27/27 10/10/10
f 29/29/29 28/28/28 11/11/11
f 30/30/30 29/29/29 12/12/12
f 31/31/31 30/30/30 13/13/13
f 32/32/32 31/31/31 14/14/14
f 33/33/33 32/32/32 15/15/15
f 34/34/34 33/33/33 16/16/16
f 18/18/18 19/19/19 36/36/36 35/35/35
f 19/19/19 20/20/20 37/37/37 36/36/36
f 20/20/20 21/21/21 38/38/38 37/37/37
f 21/21/21 22/22/22 39/39/39 38/38/38
f 22/22/22 23/23/23 40/40/40 39/39/39
f 23/23/23 24/24/24 41/41/41 40/40/40
f 24/24/24 25/25/25 42/42/42 41/41/41
f 25/25/25 26/26/26 43/43/43 42/42/42
f 26/26/26 27/27/27 44/44/44 43/43/43
f 27/27/27 28/28/28 45/45/45 44/44/44
f 28/28/28 29/29/29 46/46/46 45/45/45
f 29/29/29 30/30/30 47/47/47 46/46/46
f 30/30/30 31/31/31 48/48/48 47/47/47
f 31/31/31 32/32/32 49/49/49 48/48/48
f 32/32/32 33/33/33 50/50/50 49/49/49
f 33/33/33 34/34/34 51/51/51 50/50/50
f 35/35/35 36/36/36 53/53/53 52/52/52
f 36/36/36 37/37/37 54/54/54 53/53/53
f 37/37/37 38/38/38 55/55/55 54/54/54
f 38/38/38 39/39/39 56/56/56 55/55/55
f 39/39/39 40/40/40 57/57/57 56/56/56
f 40/40/40 41/41/41 58/58/58 57/57/57
f 41/41/41 42/42/42 59/59/59 58/58/58
f 42/42/42 43/43/43 60/60/60 59/59/59
f 43/43/43 44/44/44 61/61/61 60/60/60
f 44/44/44 45/45/45 62/62/62 61/61/61
f 45/45/45 46/46/46 63/63/63 62/62/62
f 46/46/46 47/47/47 64/64/64 63/63/63
f 47/47/47 48/48/48 65/65/65 64/64/64
f 48/48/48 49/49/49 66/66/66 65/65/65
f 49/49/49 50/50/50 67/67/67 66/66/66
f 50/50/50 51/51/51 68/68/68 67/67/67
f 52/52/52 53/53/53 70/70/70 69/69/69
f 53/53/53 54/54/54 71/71/71 70/70/70
f 54/54/54 55/55/55 72/72/72 71/71/71
f 55/55/55 56/56/56 73/73/73 72/72/72
f 56/56/56 57/57/57 74/74/74 73/73/73
f 57/57/57 58/58/58 75/75/75 74/74/74
f 58/58/58 59/59/59 76/76/76 75/75/75
f 59/59/59 60/60/60 77/77/77 76/76/76
f 60/60/60 61/61/61 78/78/78 77/77/77
f 61/61/61 62/62/62 79/79/79 78/78/78
f 62/62/62 63/63/63 80/80/80 79/79/79
f 63/63/63 64/64/64 81/81/81 80/80/80
f 64/64/64 65/65/65 82/82/82 81/81/81
f 65/65/65 66/66/66 83/83/83 82/82/82
f 66/66/66 67/67/67 84/84/84 83/83/83
f 67/67/67 68/68/68 85/85/85 84/84/84
f 69/69/69 70/70/70 87/87/87 86/86/86
f 70/70/70 71/71/71 88/88/88 87/87/87
f 71/71/71 72/72/72 89/89/89 88/88/88
f 72/72/72 73/73/73 90/90/90 89/89/89
f 73/73/73 74/74/74 91/91/91 90/90/90
f 74/74/74 75/75/75 92/92/92 91/91/91
f 75/75/75 76/76/76 93/93/93 92/92/92
f 76/76/76 77/77/77 94/94/94 93/93/93
f 77/77/77 78/78/78 95/95/95 94/94/94
f 78/78/78 79/79/79 96/96/96 95/95/95
f 79/79/79 80/80/80 97/97/97 96/96/96
f 80/80/80 81/81/81 98/98/98 97/97/97
f 81/81/81 82/82/82 99/99/99 98/98/98
f 82/82/82 83/83/83 100/100/100 99/99/99
f 83/83/83 84/84/84 101/101/101 100/100/100
f 84/84/84 85/85/85 102/102/102 101/101/101
f 86/86/86 87/87/87 104/104/104 103/103/103
f 87/87/87 88/88/88 105/105/105 104/104/104
f 88/88/88 89/89/89 106/106/106 105/105/105
f 89/89/89 90/90/90 107/107/107 106/106/106
f 90/90/90 91/91/91 108/108/108 107/107/107
f 91/91/91 92/92/92 109/109/109 108/108/108
f 92/92/92 93/93/93 110/110/110 109/109/109
f 93/93/93 94/94/94 111/111/111 110/110/110
f 94/94/94 95/95/95 112/112/112 111/111/111
f 95/95/95 96/96/96 113/113/113 112/112/112
f 96/96/96 97/97/97 114/114/114 113/113/113
f 97/97/97 98/98/98 115/115/115 114/114/114
f 98/98/98 99/99/99 116/116/116 115/115/115
f 99/99/99 100/100/100 117/117/117 116/116/116
f 100/100/100 101/101/101 118/118/118 117/117/117
f 101/101/101 102/102/102 119/119/119 118/118/118
f 103/103/103 104/104/104 121/121/121 120/120/120
f 104/104/104 105/105/105 122/122/122 121/121/121
f 105/105/105 106/106/106 123/123/123 122/122/122
f 106/106/106 107/107/107 124/124/124 123/123/123
f 107/107/107 108/108/108 125/125/125 124/124/124
f 108/108/108 109/109/109 126/126/126 125/125/125
f 109/109/109 110/110/110 127/127/127 126/126/126
f 110/110/110 111/111/111 128/128/128 127/127/127
f 111/111/111 112/112/112 129/129/129 128/128/128
f 112/112/112 113/113/113 130/130/130 129/129/129
f 113/113/113 114/114/114 131/131/131 130/130/130
f 114/114/114 115/115/115 132/132/132 131/131/131
f 115/115/115 116/116/116 133/133/133 132/132/132
f 116/116/116 117/117/117 134/134/134 133/133/133
f 117/117/117 118/118/118 135/135/135 134/134/134
f 118/118/118 119/119/119 136/136/136 135/135/135
f 120/120/120 121/121/121 138/138/138 137/137/137
f 121/121/121 122/122/122 139/139/139 138/138/138
f 122/122/122 123/123/123 140/140/140 139/139/139
f 123/123/123 124/124/124 141/141/141 140/140/140
f 124/124/124 125/125/125 142/142/142 141/141/141
f 125/125/125 126/126/126 143/143/143 142/142/142
f 126/126/126 127/127/127 144/144/144 143/143/143
f 127/127/127 128/128/128 145/145/145 144/144/144
f 128/128/128 129/129/129 146/146/146 145/145/145
f 129/129/129 130/130/130 147/147/147 146/146/146
f 130/130/130 131/131/131 148/148/148 147/147/147
f 131/131/131 132/132/132 149/149/149 148/148/148
f 132/132/132 133/133/133 150/150/150 149/149/149
f 133/133/133 134/134/134 151/151/151 150/150/150
f 134/134/134 135/135/135 152/152/152 151/151/151
f 135/135/135 136/136/136 153/153/153 152/152/152
f 137/137/137 138/138/138 155/155/155 154/154/154
f 138/138/138 139/139/139 156/156/156 155/155/155
f 139/139/139 140/140/140 157/157/157 156/156/156
f 140/140/140 141/141/141 158/158/158 157/157/157
f 141/141/141 142/142/142 159/159/159 158/158/158
f 142/142/142 143/143/143 160/160/160 159/159/159
f 143/143/143 144/144/144 161/161/161 160/160/160
f 144/144/144 145/145/145 162/162/162 161/161/161
f 145/145/145 146/146/146 163/163/163 162/162/162
f 146/146/146 147/147/147 164/164/164 163/163/163
f 147/147/147 148/148/148 165/165/165 164/164/164
f 148/148/148 149/149/149 166/166/166 165/165/165
f 149/149/149 150/150/150 167/167/167 166/166/166
f 150/150/150 151/151/151 168/168/168 167/167/167
f 151/151/151 152/152/152 169/169/169 168/168/168
f 152/152/152 153/153/153 170/170/170 169/169/169
f 154/154/154 155/155/155 172/172/172
f 155/155/155 156/156/156 173/173/173
f 156/156/156 157/157/157 174/174/174
f 157/157/157 158/158/158 175/175/175
f 158/158/158 159/159/159 176/176/176
f 159/159/159 160/160/160 177/177/177
f 160/160/160 161/161/161 178/178/178
f 161/161/161 162/162/162 179/179/179
f 162/162/162 163/163/163 180/180/180
f 163/163/163 164/164/164 181/181/181
f 164/164/164 165/165/165 182/182/182
f 165/165/165 166/166/166 183/183/183
f 166/166/166 167/167/167 184/184/184
f 167/167/167 168/168/168 185/185/185
f 168/168/168 169/169/169 186/186/186
f 169/169/169 170/170/170 187/187/187

